<?xml version="1.0" encoding="utf-8"?>
<!-- Generator: Adobe Illustrator 28.2.0, SVG Export Plug-In . SVG Version: 6.00 Build 0)  -->
<svg version="1.1" id="Camada_1" xmlns="http://www.w3.org/2000/svg" xmlns:xlink="http://www.w3.org/1999/xlink" x="0px" y="0px"
	 viewBox="0 0 574.3 84" style="enable-background:new 0 0 574.3 84;" xml:space="preserve">
<style type="text/css">
	.st0{fill:#1D1D1B;}
	.st1{fill:url(#SVGID_1_);}
</style>
<g>
	<g>
		<path class="st0" d="M167.6,58H127c0.3,3.6,1.5,6.4,3.5,8.3c2.1,1.9,4.6,2.9,7.6,2.9c4.5,0,7.6-1.9,9.3-5.7h19.1
			c-1,3.8-2.7,7.3-5.3,10.4s-5.8,5.5-9.6,7.2c-3.9,1.8-8.2,2.6-12.9,2.6c-5.7,0-10.9-1.2-15.3-3.7c-4.5-2.4-8-5.9-10.5-10.5
			c-2.5-4.5-3.8-9.9-3.8-16s1.2-11.4,3.7-16c2.5-4.5,6-8,10.4-10.5c4.5-2.4,9.6-3.7,15.4-3.7c5.7,0,10.7,1.2,15.1,3.6
			c4.4,2.4,7.9,5.8,10.3,10.2c2.5,4.4,3.7,9.6,3.7,15.4C167.9,54.4,167.8,56.2,167.6,58z M149.6,48c0-3.1-1-5.5-3.1-7.3
			s-4.7-2.7-7.9-2.7c-3,0-5.5,0.9-7.6,2.6c-2.1,1.8-3.3,4.2-3.8,7.5L149.6,48L149.6,48z"/>
		<path class="st0" d="M190.1,5.3V83h-18V5.3H190.1z"/>
		<path class="st0" d="M197.4,17.7c-2.2-2-3.4-5-3.2-7.9c0.2-2.4,1.2-4.5,3-6.1c2-1.9,4.6-2.8,7.7-2.8c3.1,0,5.6,0.9,7.6,2.8
			c1.8,1.7,2.8,3.7,3,6.2c0.2,3-1,5.9-3.2,7.9c-2,1.7-4.4,2.6-7.4,2.6C201.9,20.3,199.4,19.4,197.4,17.7z M195.9,82.9V26
			c0-0.9,0.7-1.6,1.6-1.6h5c6.3,0,11.3,5.1,11.3,11.3v47.2"/>
		<path class="st0" d="M276.5,58h-40.6c0.3,3.6,1.5,6.4,3.5,8.3c2.1,1.9,4.6,2.9,7.6,2.9c4.5,0,7.6-1.9,9.3-5.7h19.1
			c-1,3.8-2.7,7.3-5.3,10.4c-2.6,3.1-5.8,5.5-9.6,7.2c-3.9,1.8-8.2,2.6-12.9,2.6c-5.7,0-10.9-1.2-15.3-3.7c-4.5-2.4-8-5.9-10.5-10.5
			c-2.5-4.5-3.8-9.9-3.8-16s1.2-11.4,3.7-16c2.5-4.5,6-8,10.4-10.5c4.5-2.4,9.6-3.7,15.4-3.7c5.7,0,10.7,1.2,15.1,3.6
			s7.9,5.8,10.3,10.2c2.5,4.4,3.7,9.6,3.7,15.4C276.8,54.4,276.7,56.2,276.5,58z M258.4,48c0-3.1-1-5.5-3.1-7.3s-4.7-2.7-7.9-2.7
			c-3,0-5.5,0.9-7.6,2.6c-2.1,1.8-3.3,4.2-3.8,7.5L258.4,48L258.4,48z"/>
		<path class="st0" d="M299,5.3V83h-18V5.3H299z"/>
		<path class="st0" d="M306.9,37.7c2.5-4.5,5.9-8,10.4-10.5c4.4-2.4,9.5-3.7,15.3-3.7c7.3,0,13.5,1.9,18.4,5.8s8.2,9.3,9.7,16.3
			h-19.1c-1.6-4.5-4.7-6.7-9.3-6.7c-3.3,0-5.9,1.3-7.9,3.8c-2,2.6-2.9,6.2-2.9,11s1,8.4,2.9,11c2,2.6,4.6,3.8,7.9,3.8
			c4.6,0,7.7-2.2,9.3-6.7h19.1c-1.5,6.9-4.8,12.2-9.8,16.2c-5,3.9-11.1,5.9-18.4,5.9c-5.7,0-10.8-1.2-15.3-3.7
			c-4.4-2.4-7.9-5.9-10.4-10.5c-2.5-4.5-3.7-9.9-3.7-16S304.4,42.3,306.9,37.7z"/>
		<path class="st0" d="M421.9,58h-40.6c0.3,3.6,1.5,6.4,3.5,8.3c2.1,1.9,4.6,2.9,7.6,2.9c4.5,0,7.6-1.9,9.3-5.7h19.1
			c-1,3.8-2.7,7.3-5.3,10.4c-2.6,3.1-5.8,5.5-9.6,7.2c-3.9,1.8-8.2,2.6-12.9,2.6c-5.7,0-10.9-1.2-15.3-3.7c-4.5-2.4-8-5.9-10.5-10.5
			c-2.5-4.5-3.8-9.9-3.8-16s1.2-11.4,3.7-16c2.5-4.5,6-8,10.4-10.5c4.5-2.4,9.6-3.7,15.4-3.7c5.7,0,10.7,1.2,15.1,3.6
			s7.9,5.8,10.3,10.2c2.5,4.4,3.7,9.6,3.7,15.4C422.2,54.4,422.1,56.2,421.9,58z M403.9,48c0-3.1-1-5.5-3.1-7.3s-4.7-2.7-7.9-2.7
			c-3,0-5.5,0.9-7.6,2.6c-2.1,1.8-3.3,4.2-3.8,7.5L403.9,48L403.9,48z"/>
		<path class="st0" d="M443.2,68.2h25.4V83h-45.5V68.7l24.4-29.5h-24.1V24.4h44.7v14.3L443.2,68.2z"/>
		<path class="st0" d="M473.1,37.7c2.3-4.5,5.4-8,9.3-10.5c3.9-2.4,8.3-3.7,13.1-3.7c4.1,0,7.8,0.8,10.9,2.5s5.5,3.9,7.2,6.6v-8.3
			h18V83h-18v-8.3c-1.8,2.7-4.2,4.9-7.3,6.6c-3.1,1.7-6.7,2.5-10.9,2.5c-4.8,0-9.1-1.2-13-3.7s-7-6-9.3-10.6s-3.4-9.9-3.4-15.9
			S470.8,42.3,473.1,37.7z M509.9,43.1c-2.5-2.6-5.5-3.9-9.1-3.9s-6.6,1.3-9.1,3.8c-2.5,2.6-3.7,6.1-3.7,10.6s1.2,8,3.7,10.7
			c2.5,2.6,5.5,3.9,9.1,3.9s6.6-1.3,9.1-3.9c2.5-2.6,3.7-6.1,3.7-10.6S512.3,45.7,509.9,43.1z"/>
		<path class="st0" d="M563.1,26.5c3.1-1.9,6.6-2.8,10.5-2.8v19h-4.9c-4.5,0-7.8,1-10.1,2.9c-2.2,1.9-3.4,5.3-3.4,10.1V83h-18V24.4
			h18v9.8C557.4,30.9,560,28.4,563.1,26.5z"/>
	</g>
	
		<linearGradient id="SVGID_1_" gradientUnits="userSpaceOnUse" x1="11.3305" y1="-8.0692" x2="82.7195" y2="63.32" gradientTransform="matrix(1 0 0 -1 0 84.8504)">
		<stop  offset="0.25" style="stop-color:#4640D7"/>
		<stop  offset="0.2747" style="stop-color:#5D3ADA"/>
		<stop  offset="0.3175" style="stop-color:#7F31DE"/>
		<stop  offset="0.3612" style="stop-color:#9A2BE2"/>
		<stop  offset="0.4057" style="stop-color:#AD26E4"/>
		<stop  offset="0.4514" style="stop-color:#B823E6"/>
		<stop  offset="0.5" style="stop-color:#BC22E6"/>
		<stop  offset="0.95" style="stop-color:#FFD600"/>
	</linearGradient>
	<path class="st1" d="M12.9,66.8h71.5c2.7,0,4.9-2.1,4.9-4.7l0,0c0-2.6-2.2-4.7-4.9-4.7H12.9c-2.7,0-4.9,2.1-4.9,4.7l0,0
		C8,64.7,10.1,66.8,12.9,66.8z M46.9,45.8c0-2.6-2.2-4.7-4.9-4.7H12.5c-2.7,0-4.9,2.1-4.9,4.7c0,2.6,2.2,4.7,4.9,4.7H42
		C44.7,50.5,46.9,48.4,46.9,45.8z M42.5,25.3c-2.7,0-4.9,2.1-4.9,4.7s2.2,4.7,4.9,4.7h24.9c2.7,0,4.9-2.1,4.9-4.7
		c0-2.6-2.2-4.7-4.9-4.7H42.5z M101.7,45.8c0-2.6-2.2-4.7-4.9-4.7H55.6c-2.7,0-4.9,2.1-4.9,4.7c0,2.6,2.2,4.7,4.9,4.7h41.2
		C99.5,50.5,101.7,48.4,101.7,45.8z M10.4,73.5h-7c-2.7,0-4.9,2.1-4.9,4.7s2.2,4.7,4.9,4.7h7c2.7,0,4.9-2.1,4.9-4.7
		C15.3,75.6,13.1,73.5,10.4,73.5z M30.7,73.5h-6.4c-2.7,0-4.9,2.1-4.9,4.7s2.2,4.7,4.9,4.7h6.4c2.7,0,4.9-2.1,4.9-4.7
		C35.6,75.6,33.4,73.5,30.7,73.5z M97.1,73.5H45.2c-2.7,0-4.9,2.1-4.9,4.7s2.2,4.7,4.9,4.7H97c2.7,0,4.9-2.1,4.9-4.7
		C102,75.6,99.8,73.5,97.1,73.5z M84.4,34.7c2.7,0,4.9-2.1,4.9-4.7c0-2.6-2.2-4.7-4.9-4.7h-1.5c-2.7,0-4.9,2.1-4.9,4.7
		s2.2,4.7,4.9,4.7H84.4z M3.3,34.7h25.6c2.7,0,4.9-2.1,4.9-4.7c0-2.6-2.2-4.7-4.9-4.7H3.3c-2.7,0-4.9,2.1-4.9,4.7
		C-1.6,32.6,0.6,34.7,3.3,34.7z"/>
</g>
</svg>
